<svg width="208" height="62" viewBox="0 0 208 62" fill="none" xmlns="http://www.w3.org/2000/svg">
<path d="M206.512 54.3253C206.512 55.1005 206.359 55.8682 206.062 56.5843C205.765 57.3005 205.33 57.9511 204.781 58.4991C204.232 59.047 203.581 59.4814 202.864 59.7775C202.148 60.0736 201.38 60.2256 200.604 60.2248H7.28633C5.71947 60.2264 4.21613 59.6059 3.10689 58.4995C1.99766 57.3932 1.37338 55.8917 1.37134 54.3253V7.2782C1.37338 5.71106 1.99742 4.20877 3.10643 3.10121C4.21544 1.99365 5.71877 1.37135 7.28633 1.37094H200.603C201.379 1.37094 202.147 1.52375 202.864 1.82063C203.581 2.11752 204.232 2.55267 204.78 3.10123C205.329 3.64979 205.764 4.30101 206.061 5.01771C206.358 5.7344 206.51 6.50252 206.51 7.2782L206.512 54.3253Z" fill="white"/>
<path d="M200.604 61.5972H7.28627C5.35609 61.5968 3.5049 60.8309 2.1389 59.4676C0.772903 58.1043 0.0036726 56.2549 0 54.3252L0 7.27972C0.00285542 5.34909 0.771578 3.49843 2.13753 2.1337C3.50349 0.768974 5.35513 0.00162952 7.28627 0L200.603 0C202.534 0.00244261 204.385 0.770048 205.751 2.1346C207.116 3.49915 207.885 5.34934 207.889 7.27972V54.3252C207.892 58.3363 204.618 61.5972 200.604 61.5972Z" fill="#A6A6A6"/>
<path d="M206.512 54.3253C206.512 55.1005 206.359 55.8682 206.062 56.5843C205.765 57.3005 205.33 57.9511 204.781 58.4991C204.232 59.047 203.581 59.4814 202.864 59.7775C202.148 60.0736 201.38 60.2256 200.604 60.2248H7.28633C5.71947 60.2264 4.21613 59.6059 3.10689 58.4995C1.99766 57.3932 1.37338 55.8917 1.37134 54.3253V7.2782C1.37338 5.71106 1.99742 4.20877 3.10643 3.10121C4.21544 1.99365 5.71877 1.37135 7.28633 1.37094H200.603C201.379 1.37094 202.147 1.52375 202.864 1.82063C203.581 2.11752 204.232 2.55267 204.78 3.10123C205.329 3.64979 205.764 4.30101 206.061 5.01771C206.358 5.7344 206.51 6.50252 206.51 7.2782L206.512 54.3253Z" fill="black"/>
<path d="M46.42 30.4744C46.3754 25.5098 50.4861 23.0945 50.6741 22.9821C48.346 19.5887 44.7375 19.125 43.4695 19.0881C40.4388 18.7692 37.499 20.9011 35.9552 20.9011C34.3805 20.9011 32.0031 19.1189 29.4408 19.1713C26.1436 19.2221 23.059 21.1306 21.3672 24.0942C17.8759 30.137 20.4798 39.0172 23.8248 43.9016C25.498 46.2954 27.4532 48.9648 30.0125 48.8708C32.5162 48.7692 33.4514 47.2766 36.4729 47.2766C39.4666 47.2766 40.3448 48.8708 42.9549 48.8108C45.642 48.7692 47.3337 46.4078 48.9484 43.9941C50.8821 41.2538 51.6586 38.552 51.6894 38.4134C51.6278 38.3918 46.4724 36.4232 46.42 30.4744ZM41.4896 15.8749C42.8362 14.1913 43.7576 11.9008 43.5018 9.57639C41.5528 9.66265 39.1153 10.9242 37.7116 12.5708C36.4698 14.0218 35.3604 16.4002 35.647 18.6368C37.8364 18.8 40.0844 17.5323 41.4896 15.8749Z" fill="white"/>
<path d="M200.604 0H97.0571L137.615 61.5972H200.604C202.535 61.5956 204.386 60.8287 205.752 59.4646C207.118 58.1006 207.887 56.2507 207.89 54.3206V7.27972C207.887 5.34922 207.118 3.49879 205.752 2.13415C204.387 0.769511 202.535 0.00203622 200.604 0Z" fill="url(#paint0_linear_679_751)"/>
<path d="M82.685 48.5273H79.1859L77.2692 42.5061H70.6069L68.7811 48.5273H65.3745L71.9767 28.0283H76.0535L82.685 48.5273ZM76.6914 39.9799L74.9581 34.6272C74.7747 34.0804 74.4296 32.7926 73.9242 30.7655H73.8626C73.6592 31.6374 73.3341 32.9251 72.8888 34.6272L71.1847 39.9799H76.6914ZM99.6303 40.955C99.6303 43.4688 98.9477 45.4559 97.5811 46.9146C96.3577 48.2131 94.837 48.8616 93.0235 48.8616C91.0652 48.8616 89.6569 48.1638 88.8018 46.7652V54.5209H85.5169V38.6044C85.5169 37.0255 85.4753 35.4066 85.3952 33.7461H88.2841L88.4675 36.089H88.5291C89.6246 34.3237 91.2871 33.4411 93.5181 33.4411C95.2622 33.4411 96.7182 34.1296 97.8831 35.5083C99.0463 36.89 99.6303 38.7045 99.6303 40.955ZM96.2838 41.0751C96.2838 39.6364 95.9602 38.4503 95.31 37.5153C94.5997 36.5434 93.646 36.0566 92.4503 36.0566C91.6399 36.0566 90.9034 36.3277 90.2455 36.8622C89.5861 37.4014 89.1546 38.1053 88.9528 38.9771C88.8627 39.3032 88.8115 39.6388 88.8003 39.9768V42.4429C88.8003 43.5166 89.13 44.4238 89.7894 45.1663C90.4489 45.9057 91.3055 46.2769 92.3594 46.2769C93.5967 46.2769 94.5596 45.7978 95.2484 44.8474C95.9386 43.894 96.2838 42.637 96.2838 41.0751ZM116.636 40.955C116.636 43.4688 115.953 45.4559 114.586 46.9146C113.362 48.2131 111.842 48.8616 110.027 48.8616C108.069 48.8616 106.661 48.1638 105.806 46.7652V54.5209H102.521V38.6044C102.521 37.0255 102.479 35.4066 102.399 33.7461H105.288L105.471 36.089H105.533C106.627 34.3237 108.289 33.4411 110.522 33.4411C112.265 33.4411 113.721 34.1296 114.888 35.5083C116.05 36.89 116.636 38.7045 116.636 40.955ZM113.288 41.0751C113.288 39.6364 112.963 38.4503 112.312 37.5153C111.602 36.5434 110.651 36.0566 109.456 36.0566C108.645 36.0566 107.909 36.3277 107.248 36.8622C106.588 37.4014 106.158 38.1053 105.957 38.9771C105.857 39.3838 105.803 39.715 105.803 39.9768V42.4429C105.803 43.5166 106.134 44.4238 106.79 45.1663C107.45 45.9041 108.306 46.2769 109.363 46.2769C110.602 46.2769 111.565 45.7978 112.252 44.8474C112.942 43.894 113.288 42.637 113.288 41.0751ZM135.649 42.7772C135.649 44.5224 135.039 45.9411 133.826 47.0363C132.492 48.2316 130.629 48.8308 128.241 48.8308C126.034 48.8308 124.266 48.4057 122.931 47.5538L123.691 44.8166C125.131 45.67 126.714 46.0951 128.436 46.0951C129.675 46.0951 130.638 45.8148 131.325 45.2587C132.014 44.7011 132.362 43.9556 132.362 43.0252C132.362 42.1919 132.074 41.4941 131.509 40.9257C130.94 40.3588 130 39.8305 128.68 39.3453C125.09 38.0067 123.293 36.0489 123.293 33.4735C123.293 31.7914 123.928 30.4143 125.195 29.3376C126.461 28.2624 128.141 27.7249 130.23 27.7249C132.096 27.7249 133.65 28.0499 134.884 28.6984L134.06 31.3755C132.898 30.747 131.587 30.4328 130.12 30.4328C128.962 30.4328 128.053 30.7178 127.403 31.2846C126.856 31.7914 126.578 32.4091 126.578 33.1423C126.578 33.951 126.894 34.6226 127.523 35.1494C128.068 35.6346 129.063 36.1629 130.503 36.7298C132.268 37.4414 133.566 38.2701 134.396 39.2221C135.233 40.174 135.649 41.3616 135.649 42.7772ZM146.537 36.2107H142.916V43.3872C142.916 45.2125 143.554 46.1228 144.833 46.1228C145.42 46.1228 145.907 46.0736 146.292 45.9704L146.383 48.4642C145.736 48.706 144.884 48.8277 143.829 48.8277C142.531 48.8277 141.517 48.4318 140.786 47.6401C140.057 46.8484 139.69 45.5221 139.69 43.6552V36.2045H137.533V33.7399H139.69V31.0335L142.916 30.06V33.7399H146.537V36.2107ZM162.842 41.015C162.842 43.2871 162.191 45.1524 160.894 46.6111C159.537 48.113 157.731 48.8616 155.48 48.8616C153.307 48.8616 151.58 48.1423 150.292 46.7051C149.004 45.2649 148.36 43.4503 148.36 41.2615C148.36 38.971 149.026 37.0948 150.352 35.6361C151.682 34.1759 153.472 33.4457 155.723 33.4457C157.893 33.4457 159.635 34.1666 160.954 35.6053C162.215 37.0009 162.842 38.8031 162.842 41.015ZM159.437 41.0905C159.437 39.7365 159.144 38.5751 158.557 37.6031C157.868 36.4294 156.882 35.8425 155.605 35.8425C154.289 35.8425 153.28 36.4294 152.592 37.6031C152.004 38.5751 151.711 39.7566 151.711 41.1521C151.711 42.5076 152.004 43.6721 152.592 44.641C153.303 45.8148 154.293 46.4017 155.577 46.4017C156.833 46.4017 157.817 45.8025 158.529 44.6118C159.133 43.6167 159.437 42.4476 159.437 41.0905ZM173.524 36.6343C173.182 36.5726 172.836 36.5422 172.488 36.5434C171.333 36.5434 170.439 36.9778 169.81 37.8527C169.265 38.6229 168.991 39.5964 168.991 40.7717V48.5273H165.706V38.4011C165.709 36.8494 165.677 35.2979 165.61 33.7476H168.472L168.592 36.5757H168.683C169.031 35.6038 169.576 34.8197 170.325 34.2329C171.011 33.72 171.843 33.4423 172.699 33.4411C173.003 33.4411 173.277 33.4627 173.521 33.5012L173.524 36.6343ZM188.215 40.4374C188.223 40.9366 188.183 41.4355 188.095 41.9269H178.24C178.277 43.3872 178.755 44.5055 179.67 45.2757C180.5 45.9627 181.574 46.3077 182.893 46.3077C184.352 46.3077 185.683 46.0766 186.881 45.6099L187.395 47.8881C185.996 48.4981 184.345 48.8015 182.439 48.8015C180.146 48.8015 178.346 48.1269 177.037 46.7806C175.73 45.4328 175.075 43.6213 175.075 41.3524C175.075 39.125 175.684 37.2689 176.903 35.7886C178.178 34.2082 179.902 33.418 182.072 33.418C184.203 33.418 185.816 34.2082 186.911 35.7886C187.779 37.0409 188.215 38.5936 188.215 40.4374ZM185.083 39.5856C185.106 38.6105 184.89 37.771 184.445 37.0609C183.876 36.146 183.001 35.69 181.828 35.69C180.755 35.69 179.879 36.1352 179.214 37.0286C178.667 37.7387 178.342 38.5921 178.242 39.5825L185.083 39.5856Z" fill="white"/>
<path d="M69.6593 20.7809C68.7457 20.7809 67.9553 20.7363 67.2974 20.6608V10.7502C68.2175 10.608 69.1474 10.538 70.0784 10.5407C73.8456 10.5407 75.5805 12.3937 75.5805 15.4143C75.5805 18.8986 73.5313 20.7809 69.6593 20.7809ZM70.2109 11.8115C69.7025 11.8115 69.2695 11.8423 68.9105 11.9162V19.4501C69.1047 19.4809 69.4775 19.4947 70.0014 19.4947C72.4697 19.4947 73.8749 18.0899 73.8749 15.459C73.8749 13.1131 72.6037 11.8115 70.2109 11.8115ZM80.987 20.8564C78.8639 20.8564 77.488 19.2714 77.488 17.1195C77.488 14.8768 78.8931 13.2779 81.1072 13.2779C83.1996 13.2779 84.6063 14.7874 84.6063 17.0009C84.6063 19.2714 83.1564 20.8564 80.987 20.8564ZM81.0487 14.4578C79.8823 14.4578 79.135 15.5484 79.135 17.0733C79.135 18.569 79.8977 19.6596 81.0333 19.6596C82.1688 19.6596 82.9315 18.4935 82.9315 17.0425C82.9315 15.5638 82.1842 14.4578 81.0487 14.4578ZM96.7136 13.4273L94.441 20.6916H92.9603L92.0189 17.537C91.7848 16.7653 91.5899 15.9823 91.435 15.191H91.4041C91.2855 15.9827 91.0605 16.776 90.8217 17.537L89.8202 20.6916H88.3242L86.1856 13.4273H87.845L88.6677 16.8808C88.8619 17.7033 89.0252 18.4797 89.1608 19.2129H89.1916C89.3102 18.6013 89.5044 17.8373 89.7894 16.8962L90.8217 13.4288H92.1375L93.1252 16.8222C93.364 17.6448 93.5581 18.4519 93.7091 19.2144H93.7523C93.857 18.4673 94.0219 17.674 94.2453 16.8222L95.1282 13.4288L96.7136 13.4273ZM105.08 20.6916H103.465V16.5203C103.465 15.2357 102.972 14.5918 102 14.5918C101.043 14.5918 100.385 15.4143 100.385 16.3709V20.6916H98.7705V15.5037C98.7705 14.8614 98.7551 14.1728 98.7104 13.4258H100.131L100.207 14.5471H100.251C100.686 13.7708 101.567 13.2779 102.555 13.2779C104.08 13.2779 105.081 14.4439 105.081 16.3416L105.08 20.6916ZM109.533 20.6916H107.916V10.094H109.533V20.6916ZM115.42 20.8564C113.298 20.8564 111.921 19.2714 111.921 17.1195C111.921 14.8768 113.326 13.2779 115.539 13.2779C117.633 13.2779 119.038 14.7874 119.038 17.0009C119.039 19.2714 117.588 20.8564 115.42 20.8564ZM115.48 14.4578C114.314 14.4578 113.566 15.5484 113.566 17.0733C113.566 18.569 114.331 19.6596 115.463 19.6596C116.6 19.6596 117.361 18.4935 117.361 17.0425C117.363 15.5638 116.617 14.4578 115.48 14.4578ZM125.404 20.6916L125.287 19.8552H125.244C124.751 20.5283 124.031 20.8564 123.119 20.8564C121.817 20.8564 120.893 19.9445 120.893 18.7184C120.893 16.9254 122.447 15.9981 125.139 15.9981V15.8641C125.139 14.9076 124.632 14.4285 123.631 14.4285C122.914 14.4285 122.286 14.6087 121.733 14.9676L121.404 13.9063C122.076 13.4874 122.914 13.2779 123.899 13.2779C125.797 13.2779 126.755 14.2791 126.755 16.2831V18.9587C126.755 19.6919 126.788 20.2603 126.86 20.6931L125.404 20.6916ZM125.182 17.0733C123.389 17.0733 122.489 17.5077 122.489 18.5382C122.489 19.3007 122.953 19.6734 123.597 19.6734C124.418 19.6734 125.182 19.0465 125.182 18.1947V17.0733ZM134.596 20.6916L134.521 19.5256H134.476C134.012 20.4066 133.233 20.8564 132.143 20.8564C130.392 20.8564 129.094 19.3161 129.094 17.1488C129.094 14.8768 130.439 13.2763 132.276 13.2763C133.248 13.2763 133.937 13.6044 134.325 14.2637H134.358V10.094H135.974V18.7338C135.974 19.4362 135.991 20.0939 136.034 20.6916H134.596ZM134.358 16.4171C134.358 15.4005 133.684 14.5333 132.657 14.5333C131.459 14.5333 130.727 15.5946 130.727 17.0887C130.727 18.5536 131.487 19.5564 132.624 19.5564C133.64 19.5564 134.358 18.6737 134.358 17.6278V16.4171ZM146.221 20.8564C144.1 20.8564 142.724 19.2714 142.724 17.1195C142.724 14.8768 144.129 13.2779 146.342 13.2779C148.435 13.2779 149.841 14.7874 149.841 17.0009C149.842 19.2714 148.392 20.8564 146.221 20.8564ZM146.281 14.4578C145.117 14.4578 144.369 15.5484 144.369 17.0733C144.369 18.569 145.132 19.6596 146.266 19.6596C147.403 19.6596 148.164 18.4935 148.164 17.0425C148.167 15.5638 147.42 14.4578 146.281 14.4578ZM158.524 20.6916H156.908V16.5203C156.908 15.2357 156.415 14.5918 155.443 14.5918C154.486 14.5918 153.83 15.4143 153.83 16.3709V20.6916H152.213V15.5037C152.213 14.8614 152.198 14.1728 152.153 13.4258H153.574L153.649 14.5471H153.694C154.127 13.7708 155.01 13.2763 155.996 13.2763C157.521 13.2763 158.524 14.4424 158.524 16.3401V20.6916ZM169.388 14.638H167.612V18.1654C167.612 19.0634 167.923 19.5117 168.552 19.5117C168.837 19.5117 169.076 19.4809 169.268 19.4362L169.313 20.6623C169 20.7825 168.581 20.8426 168.06 20.8426C166.787 20.8426 166.026 20.1402 166.026 18.301V14.638H164.966V13.4273H166.026V12.0964L167.612 11.6174V13.4258H169.388V14.638ZM177.936 20.6916H176.323V16.5511C176.323 15.2511 175.832 14.5933 174.858 14.5933C174.021 14.5933 173.242 15.1617 173.242 16.3124V20.6916H171.629V10.094H173.242V14.4578H173.274C173.783 13.666 174.519 13.2763 175.459 13.2763C176.997 13.2763 177.936 14.4717 177.936 16.3709V20.6916ZM186.694 17.4476H181.848C181.879 18.8232 182.79 19.5995 184.138 19.5995C184.854 19.5995 185.514 19.4793 186.096 19.256L186.347 20.3774C185.66 20.6762 184.851 20.8256 183.91 20.8256C181.637 20.8256 180.292 19.39 180.292 17.1642C180.292 14.9368 181.67 13.2625 183.728 13.2625C185.585 13.2625 186.75 14.638 186.75 16.7159C186.76 16.9612 186.741 17.2068 186.694 17.4476ZM185.213 16.297C185.213 15.1756 184.648 14.3839 183.616 14.3839C182.688 14.3839 181.955 15.191 181.85 16.297H185.213Z" fill="white"/>
<defs>
<linearGradient id="paint0_linear_679_751" x1="152.472" y1="61.7608" x2="152.472" y2="-160.389" gradientUnits="userSpaceOnUse">
<stop stop-color="#1A1A1A" stop-opacity="0.1"/>
<stop offset="0.123" stop-color="#212121" stop-opacity="0.151"/>
<stop offset="0.308" stop-color="#353535" stop-opacity="0.227"/>
<stop offset="0.532" stop-color="#575757" stop-opacity="0.318"/>
<stop offset="0.783" stop-color="#858585" stop-opacity="0.421"/>
<stop offset="1" stop-color="#B3B3B3" stop-opacity="0.51"/>
</linearGradient>
</defs>
</svg>
