<svg width="28" height="28" viewBox="0 0 28 28" fill="none" xmlns="http://www.w3.org/2000/svg">
<path d="M13.5001 16.1002H11.6034C10.0745 16.1002 9.31002 16.1002 9.02078 15.6031C8.73154 15.1061 9.10919 14.4415 9.86449 13.1121L13.0654 7.47862C13.4403 6.81865 13.6278 6.48867 13.814 6.53786C14.0001 6.58704 14.0001 6.96657 14.0001 7.72562V11.4002C14.0001 11.6359 14.0001 11.7537 14.0733 11.8269C14.1465 11.9002 14.2644 11.9002 14.5001 11.9002H16.3968C17.9257 11.9002 18.6901 11.9002 18.9794 12.3972C19.2686 12.8942 18.891 13.5589 18.1357 14.8882L14.9348 20.5217C14.5598 21.1817 14.3723 21.5117 14.1862 21.4625C14.0001 21.4133 14.0001 21.0338 14.0001 20.2747V16.6002C14.0001 16.3645 14.0001 16.2466 13.9269 16.1734C13.8536 16.1002 13.7358 16.1002 13.5001 16.1002Z" fill="#5A2A82"/>
<circle cx="14" cy="14" r="10.5" stroke="#5A2A82" stroke-width="2"/>
</svg>
