<svg width="58" height="58" viewBox="0 0 58 58" fill="none" xmlns="http://www.w3.org/2000/svg">
<rect width="58" height="58" rx="4.25989" fill="#5A2A82" fill-opacity="0.1"/>
<path d="M22.2834 25.4764H35.7167M22.2834 32.523H31.8634M29.0001 44.4164C32.3491 44.4156 35.6067 43.3244 38.2804 41.3077C40.9541 39.291 42.8984 36.4585 43.8192 33.2387C44.74 30.0188 44.5873 26.5866 43.3842 23.4612C42.1811 20.3358 39.9929 17.6872 37.1507 15.9159C34.3085 14.1446 30.9668 13.347 27.631 13.6436C24.2952 13.9403 21.1467 15.3152 18.6617 17.5603C16.1767 19.8054 14.4904 22.7986 13.8577 26.0873C13.225 29.3759 13.6804 32.7812 15.1551 35.788C15.3351 36.1547 15.3951 36.568 15.3034 36.9647L13.9434 42.858C13.9051 43.0234 13.9095 43.1958 13.9562 43.3591C14.0029 43.5223 14.0904 43.6709 14.2105 43.791C14.3305 43.911 14.4792 43.9985 14.6424 44.0452C14.8056 44.092 14.978 44.0964 15.1434 44.058L21.0351 42.6964C21.4329 42.6093 21.8485 42.6622 22.2117 42.8464C24.3241 43.8837 26.6468 44.4209 29.0001 44.4164Z" stroke="#5A2A82" stroke-width="2" stroke-linecap="round" stroke-linejoin="round"/>
</svg>
