<svg width="49" height="49" viewBox="0 0 49 49" fill="none" xmlns="http://www.w3.org/2000/svg">
<rect x="4" y="3.56836" width="41" height="41" rx="20.5" fill="#5A2A82"/>
<path d="M20.3 14.1914H28.7C31.9 14.1914 34.5 16.7914 34.5 19.9914V28.3914C34.5 29.9297 33.8889 31.4049 32.8012 32.4926C31.7135 33.5803 30.2383 34.1914 28.7 34.1914H20.3C17.1 34.1914 14.5 31.5914 14.5 28.3914V19.9914C14.5 18.4532 15.1111 16.9779 16.1988 15.8902C17.2865 14.8025 18.7617 14.1914 20.3 14.1914ZM20.1 16.1914C19.1452 16.1914 18.2295 16.5707 17.5544 17.2458C16.8793 17.921 16.5 18.8366 16.5 19.7914V28.5914C16.5 30.5814 18.11 32.1914 20.1 32.1914H28.9C29.8548 32.1914 30.7705 31.8121 31.4456 31.137C32.1207 30.4619 32.5 29.5462 32.5 28.5914V19.7914C32.5 17.8014 30.89 16.1914 28.9 16.1914H20.1ZM29.75 17.6914C30.0815 17.6914 30.3995 17.8231 30.6339 18.0575C30.8683 18.2919 31 18.6099 31 18.9414C31 19.2729 30.8683 19.5909 30.6339 19.8253C30.3995 20.0597 30.0815 20.1914 29.75 20.1914C29.4185 20.1914 29.1005 20.0597 28.8661 19.8253C28.6317 19.5909 28.5 19.2729 28.5 18.9414C28.5 18.6099 28.6317 18.2919 28.8661 18.0575C29.1005 17.8231 29.4185 17.6914 29.75 17.6914ZM24.5 19.1914C25.8261 19.1914 27.0979 19.7182 28.0355 20.6559C28.9732 21.5936 29.5 22.8653 29.5 24.1914C29.5 25.5175 28.9732 26.7893 28.0355 27.7269C27.0979 28.6646 25.8261 29.1914 24.5 29.1914C23.1739 29.1914 21.9021 28.6646 20.9645 27.7269C20.0268 26.7893 19.5 25.5175 19.5 24.1914C19.5 22.8653 20.0268 21.5936 20.9645 20.6559C21.9021 19.7182 23.1739 19.1914 24.5 19.1914ZM24.5 21.1914C23.7044 21.1914 22.9413 21.5075 22.3787 22.0701C21.8161 22.6327 21.5 23.3958 21.5 24.1914C21.5 24.9871 21.8161 25.7501 22.3787 26.3127C22.9413 26.8753 23.7044 27.1914 24.5 27.1914C25.2956 27.1914 26.0587 26.8753 26.6213 26.3127C27.1839 25.7501 27.5 24.9871 27.5 24.1914C27.5 23.3958 27.1839 22.6327 26.6213 22.0701C26.0587 21.5075 25.2956 21.1914 24.5 21.1914Z" fill="white"/>
</svg>
