<svg width="208" height="62" viewBox="0 0 208 62" fill="none" xmlns="http://www.w3.org/2000/svg">
<path d="M200.138 61.5808H7.6976C3.38695 61.5808 0 58.1939 0 53.8832V7.6976C0 3.38695 3.38695 0 7.6976 0H200.138C204.448 0 207.835 3.38695 207.835 7.6976V53.8832C207.835 58.1939 204.448 61.5808 200.138 61.5808Z" fill="black"/>
<path d="M200.138 1.23162C203.679 1.23162 206.604 4.15671 206.604 7.6976V53.8832C206.604 57.4241 203.679 60.3492 200.138 60.3492H7.6976C4.15671 60.3492 1.23162 57.4241 1.23162 53.8832V7.6976C1.23162 4.15671 4.15671 1.23162 7.6976 1.23162H200.138ZM200.138 0H7.6976C3.38695 0 0 3.5409 0 7.6976V53.8832C0 58.1939 3.38695 61.5808 7.6976 61.5808H200.138C204.448 61.5808 207.835 58.1939 207.835 53.8832V7.6976C207.835 3.5409 204.448 0 200.138 0Z" fill="#A6A6A6"/>
<path d="M72.9732 15.7031C72.9732 16.9347 72.6653 18.0123 71.8955 18.7821C70.9718 19.7058 69.8942 20.1677 68.5086 20.1677C67.123 20.1677 66.0454 19.7058 65.1216 18.7821C64.1979 17.8584 63.7361 16.7807 63.7361 15.3952C63.7361 14.0096 64.1979 12.9319 65.1216 12.0082C66.0454 11.0845 67.123 10.6227 68.5086 10.6227C69.1244 10.6227 69.7402 10.7766 70.356 11.0845C70.9718 11.3924 71.4337 11.7003 71.7416 12.1622L70.9718 12.9319C70.356 12.1622 69.5863 11.8543 68.5086 11.8543C67.5849 11.8543 66.6612 12.1622 66.0454 12.9319C65.2756 13.5477 64.9677 14.4715 64.9677 15.5491C64.9677 16.6268 65.2756 17.5505 66.0454 18.1663C66.8151 18.7821 67.5849 19.244 68.5086 19.244C69.5863 19.244 70.356 18.9361 71.1258 18.1663C71.5876 17.7044 71.8955 17.0886 71.8955 16.3189H68.5086V15.0873H72.9732V15.7031ZM80.055 11.8543H75.8983V14.7794H79.7471V15.857H75.8983V18.7821H80.055V20.0137H74.6667V10.7766H80.055V11.8543ZM85.1354 20.0137H83.9038V11.8543H81.2866V10.7766H87.7526V11.8543H85.1354V20.0137ZM92.2172 20.0137V10.7766H93.4488V20.0137H92.2172ZM98.6832 20.0137H97.4516V11.8543H94.8344V10.7766H101.146V11.8543H98.5292V20.0137H98.6832ZM113.309 18.7821C112.385 19.7058 111.307 20.1677 109.922 20.1677C108.536 20.1677 107.458 19.7058 106.535 18.7821C105.611 17.8584 105.149 16.7807 105.149 15.3952C105.149 14.0096 105.611 12.9319 106.535 12.0082C107.458 11.0845 108.536 10.6227 109.922 10.6227C111.307 10.6227 112.385 11.0845 113.309 12.0082C114.232 12.9319 114.694 14.0096 114.694 15.3952C114.694 16.7807 114.232 17.8584 113.309 18.7821ZM107.458 18.0123C108.074 18.6282 108.998 19.09 109.922 19.09C110.845 19.09 111.769 18.7821 112.385 18.0123C113.001 17.3965 113.463 16.4728 113.463 15.3952C113.463 14.3175 113.155 13.3938 112.385 12.778C111.769 12.1622 110.845 11.7003 109.922 11.7003C108.998 11.7003 108.074 12.0082 107.458 12.778C106.843 13.3938 106.381 14.3175 106.381 15.3952C106.381 16.4728 106.689 17.3965 107.458 18.0123ZM116.388 20.0137V10.7766H117.773L122.238 18.0123V10.7766H123.469V20.0137H122.238L117.465 12.4701V20.0137H116.388Z" fill="white" stroke="white" stroke-width="0.307904" stroke-miterlimit="10"/>
<path d="M104.841 33.5615C101.147 33.5615 98.2215 36.3327 98.2215 40.1815C98.2215 43.8763 101.147 46.8014 104.841 46.8014C108.536 46.8014 111.461 44.0303 111.461 40.1815C111.461 36.1787 108.536 33.5615 104.841 33.5615ZM104.841 44.0303C102.84 44.0303 101.147 42.3368 101.147 40.0275C101.147 37.7182 102.84 36.0248 104.841 36.0248C106.843 36.0248 108.536 37.5643 108.536 40.0275C108.536 42.3368 106.843 44.0303 104.841 44.0303ZM90.5239 33.5615C86.8291 33.5615 83.904 36.3327 83.904 40.1815C83.904 43.8763 86.8291 46.8014 90.5239 46.8014C94.2188 46.8014 97.1439 44.0303 97.1439 40.1815C97.1439 36.1787 94.2188 33.5615 90.5239 33.5615ZM90.5239 44.0303C88.5226 44.0303 86.8291 42.3368 86.8291 40.0275C86.8291 37.7182 88.5226 36.0248 90.5239 36.0248C92.5253 36.0248 94.2188 37.5643 94.2188 40.0275C94.2188 42.3368 92.5253 44.0303 90.5239 44.0303ZM73.4353 35.5629V38.334H80.0552C79.9012 39.8736 79.2854 41.1052 78.5157 41.8749C77.592 42.7986 76.0524 43.8763 73.4353 43.8763C69.2785 43.8763 66.1995 40.6433 66.1995 36.4866C66.1995 32.3299 69.4325 29.0969 73.4353 29.0969C75.5906 29.0969 77.2841 30.0206 78.5157 31.0983L80.517 29.0969C78.8236 27.5574 76.6682 26.3258 73.5892 26.3258C68.0469 26.3258 63.2744 30.9443 63.2744 36.4866C63.2744 42.0289 68.0469 46.6474 73.5892 46.6474C76.6682 46.6474 78.8236 45.7237 80.671 43.7224C82.5184 41.8749 83.1342 39.2577 83.1342 37.2564C83.1342 36.6406 83.1342 36.0248 82.9803 35.5629H73.4353ZM143.329 37.7182C142.714 36.1787 141.174 33.5615 137.787 33.5615C134.4 33.5615 131.629 36.1787 131.629 40.1815C131.629 43.8763 134.4 46.8014 138.095 46.8014C141.02 46.8014 142.868 44.954 143.483 43.8763L141.328 42.3368C140.558 43.4145 139.635 44.1842 138.095 44.1842C136.556 44.1842 135.632 43.5684 134.862 42.1828L143.637 38.488L143.329 37.7182ZM134.4 39.8736C134.4 37.4103 136.402 36.0248 137.787 36.0248C138.865 36.0248 139.943 36.6406 140.25 37.4103L134.4 39.8736ZM127.165 46.1856H130.09V26.9416H127.165V46.1856ZM122.546 34.9471C121.776 34.1773 120.545 33.4076 119.005 33.4076C115.772 33.4076 112.693 36.3327 112.693 40.0275C112.693 43.7224 115.618 46.4935 119.005 46.4935C120.545 46.4935 121.776 45.7237 122.392 44.954H122.546V45.8777C122.546 48.3409 121.16 49.7265 119.005 49.7265C117.312 49.7265 116.08 48.4949 115.772 47.4172L113.309 48.4949C114.079 50.1883 115.926 52.3437 119.159 52.3437C122.546 52.3437 125.317 50.3423 125.317 45.5698V33.8694H122.546V34.9471ZM119.159 44.0303C117.158 44.0303 115.464 42.3368 115.464 40.0275C115.464 37.7182 117.158 36.0248 119.159 36.0248C121.16 36.0248 122.7 37.7182 122.7 40.0275C122.7 42.3368 121.16 44.0303 119.159 44.0303ZM156.723 26.9416H149.795V46.1856H152.721V38.9498H156.723C159.956 38.9498 163.035 36.6406 163.035 32.9457C163.035 29.2509 159.956 26.9416 156.723 26.9416ZM156.877 36.1787H152.721V29.5588H156.877C159.033 29.5588 160.264 31.4062 160.264 32.7918C160.11 34.4852 158.879 36.1787 156.877 36.1787ZM174.582 33.4076C172.426 33.4076 170.271 34.3313 169.501 36.3327L172.119 37.4103C172.734 36.3327 173.658 36.0248 174.736 36.0248C176.275 36.0248 177.661 36.9485 177.815 38.488V38.6419C177.353 38.334 176.121 37.8722 174.89 37.8722C172.119 37.8722 169.347 39.4117 169.347 42.1828C169.347 44.8 171.657 46.4935 174.12 46.4935C176.121 46.4935 177.045 45.5698 177.815 44.6461H177.969V46.1856H180.74V38.7959C180.432 35.4089 177.815 33.4076 174.582 33.4076ZM174.274 44.0303C173.35 44.0303 171.965 43.5684 171.965 42.3368C171.965 40.7973 173.658 40.3354 175.044 40.3354C176.275 40.3354 176.891 40.6433 177.661 40.9512C177.353 42.7986 175.813 44.0303 174.274 44.0303ZM190.439 33.8694L187.206 42.1828H187.052L183.665 33.8694H180.586L185.666 45.5698L182.741 52.0358H185.666L193.518 33.8694H190.439ZM164.575 46.1856H167.5V26.9416H164.575V46.1856Z" fill="white"/>
<path d="M16.0111 11.5464C15.5492 12.0082 15.3953 12.778 15.3953 13.7017V47.7251C15.3953 48.6488 15.7032 49.4186 16.165 49.8805L16.319 50.0344L35.409 30.9443V30.6364L16.0111 11.5464Z" fill="url(#paint0_linear_679_738)"/>
<path d="M41.5672 37.4104L35.2551 31.0983V30.6365L41.5672 24.3244L41.7211 24.4784L49.2648 28.789C51.4201 30.0207 51.4201 32.022 49.2648 33.2537L41.5672 37.4104Z" fill="url(#paint1_linear_679_738)"/>
<path d="M41.721 37.2564L35.255 30.7904L16.011 50.0344C16.7807 50.8041 17.8584 50.8041 19.244 50.1883L41.721 37.2564Z" fill="url(#paint2_linear_679_738)"/>
<path d="M41.721 24.3244L19.244 11.5464C17.8584 10.7766 16.7807 10.9306 16.011 11.7003L35.255 30.7904L41.721 24.3244Z" fill="url(#paint3_linear_679_738)"/>
<path opacity="0.2" d="M41.567 37.1024L19.244 49.7265C18.0124 50.4962 16.9347 50.3423 16.1649 49.7265L16.011 49.8804L16.1649 50.0344C16.9347 50.6502 18.0124 50.8041 19.244 50.0344L41.567 37.1024Z" fill="black"/>
<path opacity="0.12" d="M16.0111 49.7265C15.5492 49.2646 15.3953 48.4949 15.3953 47.5711V47.7251C15.3953 48.6488 15.7032 49.4186 16.165 49.8804V49.7265H16.0111ZM49.2647 32.7918L41.5671 37.1024L41.7211 37.2564L49.2647 32.9457C50.3424 32.3299 50.8042 31.5601 50.8042 30.7904C50.8042 31.5601 50.1884 32.1759 49.2647 32.7918Z" fill="black"/>
<path opacity="0.25" d="M19.2441 11.7003L49.2647 28.789C50.1884 29.4048 50.8042 30.0206 50.8042 30.7904C50.8042 30.0206 50.3424 29.2508 49.2647 28.635L19.2441 11.5464C17.0887 10.3147 15.3953 11.2385 15.3953 13.7017V13.8556C15.3953 11.5464 17.0887 10.4687 19.2441 11.7003Z" fill="white"/>
<defs>
<linearGradient id="paint0_linear_679_738" x1="33.5616" y1="13.4092" x2="7.72383" y2="39.2454" gradientUnits="userSpaceOnUse">
<stop stop-color="#00A0FF"/>
<stop offset="0.007" stop-color="#00A1FF"/>
<stop offset="0.26" stop-color="#00BEFF"/>
<stop offset="0.512" stop-color="#00D2FF"/>
<stop offset="0.76" stop-color="#00DFFF"/>
<stop offset="1" stop-color="#00E3FF"/>
</linearGradient>
<linearGradient id="paint1_linear_679_738" x1="52.0882" y1="30.792" x2="14.8365" y2="30.792" gradientUnits="userSpaceOnUse">
<stop stop-color="#FFE000"/>
<stop offset="0.409" stop-color="#FFBD00"/>
<stop offset="0.775" stop-color="#FFA500"/>
<stop offset="1" stop-color="#FF9C00"/>
</linearGradient>
<linearGradient id="paint2_linear_679_738" x1="38.2217" y1="34.3251" x2="3.18524" y2="69.3615" gradientUnits="userSpaceOnUse">
<stop stop-color="#FF3A44"/>
<stop offset="1" stop-color="#C31162"/>
</linearGradient>
<linearGradient id="paint3_linear_679_738" x1="11.2339" y1="0.270945" x2="26.88" y2="15.9171" gradientUnits="userSpaceOnUse">
<stop stop-color="#32A071"/>
<stop offset="0.069" stop-color="#2DA771"/>
<stop offset="0.476" stop-color="#15CF74"/>
<stop offset="0.801" stop-color="#06E775"/>
<stop offset="1" stop-color="#00F076"/>
</linearGradient>
</defs>
</svg>
