<svg width="58" height="58" viewBox="0 0 58 58" fill="none" xmlns="http://www.w3.org/2000/svg">
<rect width="58" height="58" rx="4.25989" fill="#5A2A82" fill-opacity="0.1"/>
<path d="M18.375 31.7002H19.9922C20.8088 32.5233 21.7338 33.2287 22.7402 33.7998H18.375C17.8247 33.7998 17.2973 34.0191 16.9082 34.4082C16.5191 34.7973 16.2998 35.3247 16.2998 35.875V36.5C16.2998 38.433 17.5333 40.3324 19.8418 41.8008C22.1372 43.2616 25.3719 44.2002 28.999 44.2002C32.6282 44.2001 35.8619 43.2613 38.1572 41.8008L38.1582 41.8018C40.4682 40.3345 41.7002 38.4316 41.7002 36.5V35.875C41.7002 35.3247 41.4809 34.7973 41.0918 34.4082C40.7027 34.0191 40.1753 33.7998 39.625 33.7998H32.8076C32.9972 33.1124 32.9972 32.3875 32.8076 31.7002H39.625C40.7323 31.7002 41.7942 32.1399 42.5771 32.9229C43.3601 33.7058 43.7998 34.7677 43.7998 35.875V36.5C43.7998 39.3989 41.9546 41.8739 39.2861 43.5723C36.6054 45.2789 32.9653 46.2998 29 46.2998C25.0347 46.2998 21.3959 45.2789 18.7139 43.5723C16.0454 41.8739 14.2002 39.3989 14.2002 36.5V35.875C14.2002 34.7677 14.6399 33.7058 15.4229 32.9229C16.2058 32.1399 17.2677 31.7002 18.375 31.7002ZM29.4873 11.7119C31.3699 11.795 33.2001 12.3579 34.8037 13.3477C36.4073 14.3374 37.7312 15.7216 38.6494 17.3672C39.5675 19.0127 40.0496 20.8656 40.0498 22.75C40.0498 23.0285 39.9391 23.2953 39.7422 23.4922C39.5453 23.6891 39.2785 23.7998 39 23.7998C38.7215 23.7998 38.4547 23.6891 38.2578 23.4922C38.0609 23.2953 37.9502 23.0285 37.9502 22.75C37.9502 20.3763 37.0066 18.1003 35.3281 16.4219C33.6497 14.7434 31.3737 13.7998 29 13.7998C26.6263 13.7998 24.3503 14.7434 22.6719 16.4219C20.9934 18.1003 20.0498 20.3763 20.0498 22.75L20.0576 23.127C20.1364 25.0089 20.808 26.8222 21.9805 28.3047C23.231 29.8857 24.9788 30.998 26.9404 31.4619L27.0693 31.4922L27.1475 31.3857C27.4472 30.9787 27.8729 30.682 28.3584 30.541C28.844 30.4 29.3628 30.4231 29.834 30.6064C30.3049 30.7898 30.7023 31.1229 30.9648 31.5547C31.2274 31.9867 31.3403 32.4935 31.2861 32.9961C31.2319 33.4987 31.0137 33.9699 30.665 34.3359C30.3162 34.702 29.856 34.943 29.3564 35.0215C28.857 35.0999 28.3456 35.0119 27.9014 34.7705C27.4572 34.5291 27.1043 34.1483 26.8984 33.6865L26.8574 33.5928L26.7568 33.5713C25.1744 33.243 23.6834 32.5717 22.3887 31.6045C20.8787 30.4769 19.6824 28.982 18.9131 27.2617C18.1438 25.5415 17.827 23.6534 17.9932 21.7764C18.1594 19.8993 18.8026 18.0954 19.8623 16.5371C20.922 14.9788 22.3632 13.7176 24.0479 12.873C25.7324 12.0285 27.6048 11.6288 29.4873 11.7119ZM25.6709 16.2559C26.866 15.6435 28.2068 15.3722 29.5459 15.4727C30.8851 15.5731 32.1713 16.0413 33.2617 16.8252C34.352 17.6091 35.2048 18.6788 35.7266 19.916C36.2483 21.1533 36.4185 22.511 36.2188 23.8389C36.0189 25.1668 35.4566 26.4144 34.5938 27.4434C33.7531 28.4457 32.6584 29.2024 31.4258 29.6367C30.8232 29.1672 30.1006 28.8804 29.3428 28.8145L29 28.7998C28.0849 28.7998 27.2445 29.1138 26.5742 29.6357C25.1665 29.1396 23.9431 28.2253 23.0713 27.0117C22.1792 25.7698 21.6997 24.2791 21.7002 22.75C21.7007 21.4071 22.0719 20.0901 22.7725 18.9443C23.473 17.7987 24.4758 16.8683 25.6709 16.2559ZM29 17.5498C27.6209 17.5498 26.2984 18.0981 25.3232 19.0732C24.3481 20.0484 23.7998 21.3709 23.7998 22.75C23.7998 24.1291 24.3481 25.4516 25.3232 26.4268C26.2984 27.4019 27.6209 27.9502 29 27.9502C30.3791 27.9502 31.7016 27.4019 32.6768 26.4268C33.6519 25.4516 34.2002 24.1291 34.2002 22.75C34.2002 21.3709 33.6519 20.0484 32.6768 19.0732C31.7016 18.0981 30.3791 17.5498 29 17.5498Z" fill="#5A2A82" stroke="#EFEAF3" stroke-width="0.4"/>
</svg>
