<svg width="49" height="49" viewBox="0 0 49 49" fill="none" xmlns="http://www.w3.org/2000/svg">
<rect x="4" y="3.56836" width="41" height="41" rx="20.5" fill="#5A2A82"/>
<path d="M33.6209 33.8753C33.5487 34.0092 33.4425 34.121 33.3134 34.1989C33.1844 34.2769 33.0371 34.3181 32.8871 34.3184H27.8551C27.714 34.3183 27.5751 34.282 27.4514 34.2127C27.3278 34.1435 27.2232 34.0436 27.1475 33.9222L22.9029 27.1284L16.7346 34.0386C16.5842 34.2031 16.3762 34.3007 16.1557 34.31C15.9352 34.3194 15.72 34.2399 15.5567 34.0887C15.3934 33.9376 15.2951 33.7269 15.2833 33.5025C15.2714 33.2781 15.3469 33.0579 15.4934 32.8898L21.9688 25.6293L15.4064 15.1316C15.3255 15.0025 15.2803 14.8536 15.2754 14.7005C15.2704 14.5475 15.306 14.3959 15.3783 14.2616C15.4507 14.1273 15.5571 14.0153 15.6866 13.9374C15.816 13.8594 15.9636 13.8183 16.114 13.8184H21.1459C21.287 13.8184 21.4259 13.8547 21.5496 13.924C21.6733 13.9932 21.7778 14.0931 21.8535 14.2145L26.0982 21.0083L32.2665 14.0981C32.4168 13.9336 32.6248 13.8361 32.8453 13.8267C33.0658 13.8173 33.281 13.8968 33.4444 14.048C33.6077 14.1991 33.7059 14.4098 33.7178 14.6342C33.7296 14.8587 33.6541 15.0788 33.5077 15.247L27.0322 22.502L33.5947 33.0061C33.6751 33.1354 33.7199 33.2842 33.7245 33.4371C33.7291 33.5899 33.6933 33.7413 33.6209 33.8753Z" fill="white"/>
</svg>
